<svg width="48" height="48" viewBox="0 0 48 48" fill="none" xmlns="http://www.w3.org/2000/svg">
  <rect width="48" height="48" rx="8" fill="#E94E1B"/>
  <path d="M14.2 32C13.3 32 12.5 31.7 11.8 31.1C11.1 30.5 10.8 29.8 10.8 29V17.8C10.8 17 11.1 16.3 11.8 15.7C12.5 15.1 13.3 14.8 14.2 14.8C15.1 14.8 15.9 15.1 16.6 15.7C17.3 16.3 17.6 17 17.6 17.8V29C17.6 29.8 17.3 30.5 16.6 31.1C15.9 31.7 15.1 32 14.2 32Z" fill="white"/>
  <path d="M31.5 32C29.8 32 28.3 31.4 27 30.2C25.7 28.9 25 27.3 25 25.3V14.8H28.5V25.3C28.5 26.2 28.8 26.9 29.3 27.5C29.9 28.1 30.6 28.4 31.5 28.4C32.4 28.4 33.1 28.1 33.7 27.5C34.3 26.9 34.6 26.2 34.6 25.3V14.8H38V25.3C38 27.3 37.3 28.9 36 30.2C34.7 31.4 33.2 32 31.5 32Z" fill="white"/>
  <path d="M42 16C42 14.9 41.1 14 40 14C38.9 14 38 14.9 38 16C38 17.1 38.9 18 40 18C41.1 18 42 17.1 42 16Z" fill="white"/>
</svg>